<?xml version="1.0" encoding="utf-8"?>
<!-- Generator: Adobe Illustrator 19.0.0, SVG Export Plug-In . SVG Version: 6.00 Build 0)  -->
<svg version="1.1" id="_x31_" xmlns="http://www.w3.org/2000/svg" xmlns:xlink="http://www.w3.org/1999/xlink" x="0px" y="0px"
	 viewBox="-164 339.5 512 512" style="enable-background:new -164 339.5 512 512;" xml:space="preserve">
<style type="text/css">
	.st0{fill:#F05155;}
</style>
<g id="event">
	<g id="second">
		<path class="st0" d="M94.7,403.8v-25.9c-1.4-12.3-11.8-21.8-24.5-21.8h-197.1c-13.6,0-24.6,11.1-24.6,24.6v262.8
			c0,13.6,11.1,24.6,24.6,24.6h39.5V446.4c0-23.5,19.1-42.6,42.6-42.6H94.7z"/>
		<path class="st0" d="M152.4,421.8h-14h-183c-13.6,0-24.6,11.1-24.6,24.6v229.9v16.4c0,13.6,11.1,24.6,24.6,24.6h197.1
			c13.6,0,24.6-11.1,24.6-24.6V446.4C177,432.8,165.9,421.8,152.4,421.8z"/>
	</g>
	<g id="first">
		<path d="M291.9,511.2H94.9c-22.6,0-41.1,18.4-41.1,41.1v246.3c0,22.6,18.4,41.1,41.1,41.1h197.1c22.6,0,41.1-18.4,41.1-41.1V552.2
			C333,529.6,314.6,511.2,291.9,511.2z M316.6,798.6c0,13.6-11.1,24.6-24.6,24.6H94.9c-13.6,0-24.6-11.1-24.6-24.6V552.2
			c0-13.6,11.1-24.6,24.6-24.6h197.1c13.6,0,24.6,11.1,24.6,24.6V798.6z"/>
		<path d="M29.2,773.9H12.8c-13.6,0-24.6-11.1-24.6-24.6V486.5c0-13.6,11.1-24.6,24.6-24.6h197.1c13.6,0,24.6,11.1,24.6,24.6
			c0,4.5,3.7,8.2,8.2,8.2s8.2-3.7,8.2-8.2c0-22.6-18.4-41.1-41.1-41.1H12.8c-22.6,0-41.1,18.4-41.1,41.1v262.8
			c0,22.6,18.4,41.1,41.1,41.1h16.4c4.5,0,8.2-3.7,8.2-8.2C37.4,777.6,33.7,773.9,29.2,773.9z"/>
		<path d="M259.1,708.2H127.7c-4.5,0-8.2,3.7-8.2,8.2s3.7,8.2,8.2,8.2h131.4c4.5,0,8.2-3.7,8.2-8.2S263.6,708.2,259.1,708.2z"/>
		<path d="M259.1,773.9H127.7c-4.5,0-8.2,3.7-8.2,8.2c0,4.5,3.7,8.2,8.2,8.2h131.4c4.5,0,8.2-3.7,8.2-8.2
			C267.3,777.6,263.6,773.9,259.1,773.9z"/>
		<path d="M259.1,642.6H127.7c-4.5,0-8.2,3.7-8.2,8.2s3.7,8.2,8.2,8.2h131.4c4.5,0,8.2-3.7,8.2-8.2S263.6,642.6,259.1,642.6z"/>
		<path d="M259.1,576.9H127.7c-4.5,0-8.2,3.7-8.2,8.2c0,4.5,3.7,8.2,8.2,8.2h131.4c4.5,0,8.2-3.7,8.2-8.2
			C267.3,580.5,263.6,576.9,259.1,576.9z"/>
	</g>
</g>
</svg>
