<?xml version="1.0" encoding="utf-8"?>
<!-- Generator: Adobe Illustrator 19.0.0, SVG Export Plug-In . SVG Version: 6.00 Build 0)  -->
<svg version="1.1" id="Capa_1" xmlns="http://www.w3.org/2000/svg" xmlns:xlink="http://www.w3.org/1999/xlink" x="0px" y="0px"
	 viewBox="-381.8 340.3 512 512" style="enable-background:new -381.8 340.3 512 512;" xml:space="preserve">
<style type="text/css">
	.st0{fill:#D12027;}
</style>
<g>
	<g id="secont">
		<path class="st0" d="M-176.8,374.1c-5.3-7.6-9.9-15.2-14.6-21.6c-4.7,6.4-9.4,14-14.6,21.6c-43.8,64.9-109.9,162.5-109.9,211.6
			c0,34.5,13.4,65.5,36.2,88.3c22.8,22.2,53.8,36.2,88.3,36.2c34.5,0,65.5-13.4,88.3-36.2c22.2-22.8,36.2-53.8,36.2-88.3
			C-66.9,536.6-132.9,439.6-176.8,374.1z M-101.9,641.3c-8.8,14.6-21.6,27.5-37.4,36.2c-7,4.1-16.4,1.8-21-6.4
			c-4.1-7-1.2-16.4,5.8-20.5c11.1-5.8,20.5-15.2,26.9-25.7c6.4-10.5,10.5-22.8,11.1-35.7c0.6-8.2,7.6-14.6,15.8-14
			c8.2,0.6,14.6,7.6,14,15.8C-87.3,609.1-92.6,626.7-101.9,641.3z"/>
	</g>
	<g id="first">
		<path d="M-50.8,459.6c-9.9-14.6-18.7-28.1-26.9-40.3c-1.2-1.8-2.9-3.5-4.7-4.7c-7-4.7-16.4-2.3-21,4.7
			c-7.6,12.3-16.4,25.1-26.9,40.3c-46.2,67.8-115.2,170.1-115.2,228.6c0,42.7,17.5,81.3,45.6,109.3c28.1,27.5,66.6,45,109.3,45
			s81.3-17.5,109.3-45.6c28.1-28.1,45.6-66.6,45.6-109.3C64.4,629.1-4.6,527.4-50.8,459.6z M-2.3,775.8
			c-22.8,22.8-53.8,36.2-88.3,36.2c-34.5,0-65.5-14-88.3-36.2c-22.8-22.8-36.2-53.8-36.2-88.3c0-49.1,66.1-146.7,109.9-211.6
			c5.3-7.6,9.9-15.2,14.6-21.6c4.7,6.4,9.4,14,14.6,21.6C-32.1,541.4,34,638.4,34,687.6C34,722,19.9,753-2.3,775.8z"/>
		<path d="M0.1,677c-8.2-0.6-15.2,5.8-15.8,14c-0.6,12.9-4.7,25.1-11.1,35.7c-6.4,10.5-15.8,19.9-26.9,25.7
			c-7,4.1-9.9,13.4-5.8,20.5c4.7,8.2,14,10.5,21,6.4c15.8-8.8,28.6-21.6,37.4-36.2c9.4-14.6,14.6-32.2,15.2-50.3
			C14.7,684.6,8.3,677.6,0.1,677z"/>
	</g>
</g>
</svg>
