<?xml version="1.0" encoding="utf-8"?>
<!-- Generator: Adobe Illustrator 19.0.0, SVG Export Plug-In . SVG Version: 6.00 Build 0)  -->
<svg version="1.1" id="Capa_1" xmlns="http://www.w3.org/2000/svg" xmlns:xlink="http://www.w3.org/1999/xlink" x="0px" y="0px"
	 viewBox="-245.9 340.4 512 512" style="enable-background:new -245.9 340.4 512 512;" xml:space="preserve">
<style type="text/css">
	.st0{fill:#F90000;}
</style>
<g id="gallery">
	<g id="second">
		<g>
			<g>
				<path class="st0" d="M167.2,415.2c0,0.1,0,0.1,0,0.2l-25.3,218.2c0.1,5.7-2.5,11-7,14.5c-2.2,2.1-7,3.2-7,4.3V462.8
					c-0.9-24.5-20.6-44.1-45.1-44.6h-256.9l4.8-41.9c1.1-5.4,3.9-10.4,8.1-14c4.7-3.3,10.4-4.8,16.1-4.3l292.9,33.8
					C159.6,392.9,168.3,403.4,167.2,415.2z"/>
				<path class="st0" d="M82.8,439.6h-295c-11.8,0-19.9,11.3-19.9,23.1v153.1l70.9-51.6c17.9-13.3,42.7-12.4,59.7,2.2l59.1,52.1
					c8.9,7.6,21.6,8.6,31.7,2.7L106.4,553v-90.3C105.6,450.1,95.4,440.2,82.8,439.6z M-29.5,563.8c-24.9,0-45.1-20.2-45.1-45.1
					c0-24.9,20.2-45.1,45.1-45.1c24.9,0,45.1,20.2,45.1,45.1C15.6,543.6-4.6,563.8-29.5,563.8z"/>
				<path class="st0" d="M-5.9,518.6c0,13.1-10.6,23.6-23.6,23.6c-13.1,0-23.6-10.6-23.6-23.6c0-13.1,10.6-23.6,23.6-23.6
					c6.5,0,12.4,2.6,16.7,6.9S-5.9,512.1-5.9,518.6z"/>
				<path class="st0" d="M106.4,578.3v104.2h0c0,11.8-11.8,20.4-23.6,20.4h-295c-10.7,0.3-19.6-8.1-19.9-18.8c0-0.5,0-1.1,0-1.6
					v-39.8l83.3-61.3c10-7.7,24.1-7,33.3,1.6l58.6,51.6c8.9,7.5,20.1,11.6,31.7,11.8c9.1,0.1,18-2.3,25.8-7L106.4,578.3z"/>
			</g>
		</g>
	</g>
	<g id="first">
		<g>
			<g>
				<path d="M42.7,576.7c-24.9,0-45.1,20.2-45.1,45.1c0,24.9,20.2,45.1,45.1,45.1c24.9,0,45.1-20.2,45.1-45.1S67.6,576.7,42.7,576.7
					z M42.7,645.5c-13.1,0-23.6-10.6-23.6-23.6s10.6-23.6,23.6-23.6l0,0c13.1,0,23.6,10.6,23.6,23.6S55.7,645.5,42.7,645.5z"/>
				<path d="M222.7,473.5l-293.4-33.3c-11.4-1.6-22.9,1.7-31.7,9.1c-8.8,6.8-14.4,16.9-15.6,27.9l-5.4,44.1h-16.7
					c-23.6,0-41.4,21-41.4,44.6v219.8c-0.6,22.5,17.2,41.3,39.7,41.9c0.5,0,1.1,0,1.6,0h295c23.6,0,45.1-18.3,45.1-41.9v-8.6
					c7.3-1.4,14.3-4.3,20.4-8.6c8.7-7.3,14.3-17.7,15.6-29l24.7-218.2C263.4,497.6,246.3,476.3,222.7,473.5z M178.6,785.7
					c0,11.8-11.8,20.4-23.6,20.4h-295c-10.7,0.3-19.6-8.1-19.9-18.8c0-0.6,0-1.1,0-1.7V746l83.3-61.3c10-7.7,24.1-7,33.3,1.6
					l58.6,51.6c8.9,7.5,20.1,11.6,31.7,11.8c9.1,0.1,18-2.3,25.8-7l105.9-61.3L178.6,785.7L178.6,785.7z M178.6,656.2L61.5,724.5
					c-10.1,6-22.8,4.9-31.7-2.7l-59.1-52.1c-16.9-14.6-41.7-15.5-59.7-2.1l-70.9,51.6V566c0-11.8,8.1-23.1,19.9-23.1h295
					c12.6,0.5,22.8,10.5,23.6,23.1L178.6,656.2L178.6,656.2z M239.4,518.4c0,0.1,0,0.1,0,0.2l-25.3,218.2c0,5.7-2.5,11-7,14.5
					c-2.1,2.1-7,3.2-7,4.3V566c-0.8-24.5-20.7-44-45.1-44.6h-256.9l4.8-41.9c1-5.4,3.9-10.3,8.1-14c4.7-3.3,10.4-4.8,16.1-4.3
					L220,495C231.8,496.1,240.5,506.6,239.4,518.4z"/>
			</g>
		</g>
	</g>
</g>
</svg>
