<?xml version="1.0" encoding="utf-8"?>
<!-- Generator: Adobe Illustrator 19.0.0, SVG Export Plug-In . SVG Version: 6.00 Build 0)  -->
<svg version="1.1" id="Capa_1" xmlns="http://www.w3.org/2000/svg" xmlns:xlink="http://www.w3.org/1999/xlink" x="0px" y="0px"
	 viewBox="-164 339.6 512 512" style="enable-background:new -164 339.6 512 512;" xml:space="preserve">
<style type="text/css">
	.st0{fill:#FC0606;}
</style>
<g id="media">
	<path id="second" class="st0" d="M168,503L-79,350.8c-7.7-4.7-16.9-4.9-24.8-0.5c-7.9,4.4-12.5,12.4-12.5,21.4v303.1
		c0,15,12.7,25.2,24.6,25.2c3.9,0,8.2-1.4,12.7-4.1l68.4-41.7l1.1-0.7l177.5-108.7c7.5-4.6,11.7-12.2,11.8-20.9
		C179.7,515.2,175.4,507.6,168,503z"/>
	<path id="first" d="M273.2,586.7l-247-152.3c-17.9-11-39.5-11.5-57.8-1.2c-18.3,10.2-29.3,28.9-29.3,49.9v303.1
		c0,31.7,25.6,57.7,57,57.9c0.1,0,0.2,0,0.3,0c9.8,0,20.1-3.1,29.6-8.9c7.7-4.7,10.1-14.7,5.4-22.4c-4.7-7.7-14.7-10.1-22.4-5.4
		c-4.5,2.7-8.8,4.1-12.7,4.1c-11.9-0.1-24.6-10.2-24.6-25.2V483.1c0-9,4.7-17,12.6-21.4c7.9-4.4,17.1-4.2,24.8,0.5l247,152.3
		c7.4,4.6,11.7,12.2,11.7,20.9c0,8.7-4.3,16.3-11.8,20.9L77.4,765.6c-7.7,4.7-10.1,14.7-5.4,22.4c4.7,7.7,14.7,10.1,22.4,5.4
		L273,684.1c17.1-10.4,27.3-28.6,27.4-48.6C300.4,615.4,290.2,597.2,273.2,586.7z"/>
</g>
</svg>
