<?xml version="1.0" encoding="utf-8"?>
<!-- Generator: Adobe Illustrator 19.0.0, SVG Export Plug-In . SVG Version: 6.00 Build 0)  -->
<svg version="1.1" id="Capa_1" xmlns="http://www.w3.org/2000/svg" xmlns:xlink="http://www.w3.org/1999/xlink" x="0px" y="0px"
	 viewBox="-268.1 339.7 512 512" style="enable-background:new -268.1 339.7 512 512;" xml:space="preserve">
<style type="text/css">
	.st0{fill:#FF0303;}
</style>
<g id="tshirt">
	<g id="second">
		<g>
			<path class="st0" d="M144.2,470.2l-66.6,67.3v184c0,4.4-3.6,8-8,8H-184c-4.4,0-8-3.6-8-8v-184l-66.6-67.3
				c-0.1-0.1-0.2-0.2-0.3-0.3c-3-3.2-2.9-8.3,0.3-11.3l83.6-74.6c0.8-0.7,1.7-1.2,2.6-1.6l60.8-22c0.7-0.3,1.5-0.4,2.2-0.4
				c4.4-0.2,8.2,3.2,8.4,7.6c0.1,1.8,2.6,42.3,43.4,43c40.6-0.6,43.2-41.2,43.2-43c0-0.8,0.2-1.6,0.5-2.3c1.5-4.1,6.1-6.3,10.3-4.8
				l60.9,21.8c1,0.4,1.9,0.9,2.6,1.6l84.2,74.8c0.1,0.1,0.2,0.2,0.3,0.3C147.5,462.1,147.4,467.1,144.2,470.2z"/>
		</g>
	</g>
	<g id="first">
		<g>
			<path d="M234.5,567.9c-0.1-0.1-0.2-0.2-0.3-0.3L150,492.8c-0.8-0.7-1.7-1.2-2.6-1.6l-60.9-21.8c-4.2-1.5-8.7,0.6-10.3,4.8
				c-0.3,0.7-0.4,1.5-0.5,2.3c0,1.8-2.6,42.3-43.2,43c-40.8-0.6-43.4-41.2-43.4-43c-0.2-4.4-4-7.8-8.4-7.6c-0.8,0-1.5,0.2-2.2,0.4
				l-60.8,22c-1,0.4-1.9,0.9-2.6,1.6l-83.6,74.6c-3.2,3-3.3,8.1-0.3,11.3c0.1,0.1,0.2,0.2,0.3,0.3l66.6,67.3v184c0,4.4,3.6,8,8,8
				h253.6c4.4,0,8-3.6,8-8v-184l66.6-67.3C237.4,576.1,237.5,571.1,234.5,567.9z M167.4,623.7v-37.1c0-4.4-3.6-8-8-8s-8,3.6-8,8
				v235.5H-86.3V586.5c0-4.4-3.6-8-8-8s-8,3.6-8,8v37.2l-49.2-49.8l76.2-68.2l50.1-18.1c6.2,32,37.1,52.9,69.1,46.6
				c23.6-4.6,42.1-23,46.6-46.6l50.1,18.1l75.9,68.2L167.4,623.7z"/>
		</g>
	</g>
</g>
</svg>
