<?xml version="1.0" encoding="utf-8"?>
<!-- Generator: Adobe Illustrator 19.0.0, SVG Export Plug-In . SVG Version: 6.00 Build 0)  -->
<svg version="1.1" id="Capa_1" xmlns="http://www.w3.org/2000/svg" xmlns:xlink="http://www.w3.org/1999/xlink" x="0px" y="0px"
	 viewBox="-164 339.5 512 512" style="enable-background:new -164 339.5 512 512;" xml:space="preserve">
<style type="text/css">
	.st0{fill:#EE1E3A;}
</style>
<g id="ring">
	<path id="second" class="st0" d="M226.9,608.9c0.7-5.4,1-11,1-16.6c0-5.6-0.3-11-1-16.4c-8.1-66.7-64.7-118.5-133.5-118.9
		c-0.3,0-0.6,0-0.8,0c0,0,0,0,0,0c0,0,0,0,0,0c-1.2,0-2.5,0-3.7,0.1c-0.4,0-0.9,0-1.3,0.1c-0.8,0-1.5,0.1-2.3,0.1
		c-0.6,0-1.1,0.1-1.7,0.1c-0.6,0-1.3,0.1-1.9,0.1c-0.6,0-1.3,0.1-1.9,0.2c-0.6,0.1-1.1,0.1-1.7,0.2c-0.7,0.1-1.3,0.1-2,0.2
		c-0.5,0.1-1,0.1-1.5,0.2c-0.7,0.1-1.4,0.2-2.1,0.3c-0.5,0.1-0.9,0.1-1.4,0.2c-0.7,0.1-1.5,0.2-2.2,0.4c-0.4,0.1-0.8,0.2-1.2,0.2
		c-0.8,0.1-1.5,0.3-2.3,0.4c-0.3,0.1-0.7,0.1-1,0.2c-0.7,0.2-1.5,0.3-2.2,0.5c0,0,0,0,0,0c-9.7,2.2-19,5.5-27.8,9.7
		c-12.8-6.3-26.7-10.6-41.4-12.5C18.3,438.8,28,423.1,28,409.3c0-16.6-13.5-30.1-30.1-30.1c-9,0-17.1,4-22.7,10.3
		c-5.5-6.3-13.6-10.3-22.7-10.3c-16.6,0-30.1,13.5-30.1,30.1c0,13.7,9.7,29.5,34.9,48.2c-66.3,8.7-117.6,65.5-117.6,134.2
		c0,11.7,1.5,23.1,4.3,34c14.9,58.6,68.1,102,131.2,102c10.3,0,20.4-1.1,30.3-3.4c-0.3-0.2-0.5-0.4-0.8-0.5
		c9.9-2.2,19.4-5.5,28.4-9.8c0.4,0.2,0.8,0.4,1.1,0.6c0.2,0.1,0.5,0.2,0.7,0.3c1,0.5,2,0.9,3,1.4c0.2,0.1,0.3,0.1,0.5,0.2
		c0.2,0.1,0.4,0.2,0.6,0.2c0.6,0.3,1.3,0.5,1.9,0.8c0.5,0.2,0.9,0.4,1.4,0.6c0.5,0.2,1.1,0.4,1.6,0.6c0.6,0.2,1.2,0.4,1.7,0.7
		c0.4,0.1,0.8,0.3,1.2,0.4c0.7,0.3,1.5,0.5,2.2,0.8c0.2,0.1,0.4,0.1,0.7,0.2c0.9,0.3,1.8,0.6,2.7,0.9c0,0,0.1,0,0.1,0
		c12.6,3.9,25.7,6,39.2,6.1c0.3,0,0.7,0,1,0c0,0,0,0,0,0s0,0,0,0c0.3,0,0.7,0,1,0C162.3,727.2,218.8,675.5,226.9,608.9z"/>
	<g id="first">
		<path d="M86.9,802.1c-52.2-3-93.7-46.3-93.7-99.2c0-54.8,44.6-99.4,99.4-99.4c24.5,0,48.1,9,66.3,25.3
			c21.1,18.8,33.1,45.8,33.1,74.1c0,23.7-8.5,46.5-23.7,64.4c10.8,7,23.1,11.1,36,12.1c15.5-22.5,23.6-48.8,23.6-76.4
			c0-29.6-9.4-57.6-27.1-81.2c-14.1-18.7-32.8-33.6-54.2-42.9c-11.8-5.2-24.2-8.6-37-10.2c25.8-19,35.6-34.9,35.6-48.7
			c0-16.6-13.5-30.1-30.1-30.1c-9,0-17.1,4-22.7,10.3c-5.5-6.3-13.6-10.3-22.7-10.3c-16.6,0-30.1,13.5-30.1,30.1
			c0,13.9,9.9,29.8,35.6,48.7C8.9,577-42.8,634-42.8,702.8c0,74.6,60.7,135.4,135.4,135.4c10.3,0,20.4-1.1,30.3-3.4
			C109.4,825.8,97.2,814.8,86.9,802.1L86.9,802.1z"/>
		<path d="M210,567.5c-10.3,0-20.4,1.1-30.3,3.4c13.5,9,25.7,20,36,32.7c52.2,3,93.7,46.3,93.7,99.2c0,54.8-44.6,99.4-99.4,99.4
			c-24.5,0-48.1-9-66.3-25.3c-21.1-18.8-33.1-45.8-33.1-74.1c0-23.7,8.5-46.5,23.7-64.4c-10.8-7-23.1-11.1-36-12.1
			c-15.5,22.5-23.6,48.8-23.6,76.4c0,29.6,9.4,57.6,27.1,81.2c14.1,18.7,32.8,33.6,54.2,42.9c17.1,7.5,35.3,11.3,54.1,11.3
			c74.6,0,135.4-60.7,135.4-135.4C345.3,628.2,284.6,567.5,210,567.5z"/>
	</g>
</g>
</svg>
